<?xml version="1.0" standalone="no"?>
<!DOCTYPE svg PUBLIC "-//W3C//DTD SVG 20010904//EN"
 "http://www.w3.org/TR/2001/REC-SVG-20010904/DTD/svg10.dtd">
<svg version="1.0" xmlns="http://www.w3.org/2000/svg"
 width="500.000000pt" height="500.000000pt" viewBox="0 0 500.000000 500.000000"
 preserveAspectRatio="xMidYMid meet">

<g transform="translate(0.000000,500.000000) scale(0.100000,-0.100000)"
fill="#000000" stroke="none">
<path d="M1746 4538 c-11 -44 -7 -253 7 -271 11 -16 60 -17 572 -19 l560 -3 3
-219 2 -219 -37 7 c-472 79 -916 -58 -1243 -384 -202 -202 -324 -430 -387
-720 -14 -65 -18 -126 -17 -265 0 -158 4 -194 27 -292 54 -234 157 -436 311
-612 31 -36 53 -68 49 -72 -13 -11 -165 -57 -228 -69 -33 -6 -91 -14 -130 -18
l-70 -7 0 -150 0 -150 95 1 c160 2 334 46 517 134 l101 48 94 -47 c51 -26 128
-58 172 -73 l78 -26 -99 -65 c-252 -167 -521 -261 -823 -287 -69 -6 -129 -15
-133 -19 -4 -4 -6 -72 -5 -152 l3 -144 45 -3 c25 -2 95 1 155 8 448 45 866
235 1188 539 l83 78 89 6 c328 23 707 220 921 479 60 72 139 185 150 212 3 9
-14 25 -51 46 -31 18 -57 31 -58 29 -137 -218 -269 -352 -459 -466 -116 -69
-302 -138 -425 -157 l-42 -6 55 77 c192 268 313 566 370 913 14 88 18 207 23
723 l6 618 70 -47 c115 -77 141 -103 246 -244 56 -74 105 -137 110 -138 16 -6
189 129 194 152 3 11 4 307 3 656 l-3 635 -152 3 -153 3 0 -542 c0 -526 -1
-541 -19 -528 -10 8 -52 40 -93 71 -42 32 -106 74 -142 94 l-66 36 0 418 c0
230 -3 425 -6 434 -6 14 -79 16 -729 16 l-723 0 -6 -22z m1092 -858 l53 -12
-4 -711 c-3 -695 -4 -714 -26 -812 -77 -343 -253 -670 -478 -887 l-38 -37 -60
15 c-77 19 -134 39 -217 76 l-67 30 32 26 c305 249 491 578 536 947 7 57 11
329 11 739 l0 649 103 -6 c56 -3 126 -11 155 -17z m-568 -612 c0 -326 -5 -635
-10 -686 -20 -186 -77 -347 -176 -501 -63 -96 -208 -246 -297 -306 l-57 -38
-31 29 c-49 46 -148 177 -196 256 -180 303 -218 712 -97 1050 108 300 347 566
631 704 72 35 196 82 221 83 9 1 12 -124 12 -591z"/>
</g>
</svg>
