<svg xmlns="http://www.w3.org/2000/svg" xmlns:xlink="http://www.w3.org/1999/xlink" width="500" zoomAndPan="magnify" viewBox="0 0 375 374.999991" height="500" preserveAspectRatio="xMidYMid meet" version="1.0"><defs><clipPath id="ab403f440d"><path d="M 86.9375 27.484375 L 287.9375 27.484375 L 287.9375 337.234375 L 86.9375 337.234375 Z M 86.9375 27.484375 " clip-rule="nonzero"/></clipPath><clipPath id="7136071661"><path d="M 90.113281 83.480469 L 285.113281 83.480469 L 285.113281 291.230469 L 90.113281 291.230469 Z M 90.113281 83.480469 " clip-rule="nonzero"/></clipPath></defs><rect x="-37.5" width="450" fill="#ffffff" y="-37.499999" height="449.999989" fill-opacity="1"/><rect x="-37.5" width="450" fill="#ffffff" y="-37.499999" height="449.999989" fill-opacity="1"/><rect x="-37.5" width="450" fill="#000000" y="-37.499999" height="449.999989" fill-opacity="1"/><path fill="#f8f8f8" d="M 187.5 0 C 83.945312 0 0 83.945312 0 187.5 C 0 291.054688 83.945312 375 187.5 375 C 291.054688 375 375 291.054688 375 187.5 C 375 83.945312 291.054688 0 187.5 0 " fill-opacity="1" fill-rule="nonzero"/><g clip-path="url(#ab403f440d)"><path fill="#000000" d="M 133.222656 51.144531 L 214.667969 51.144531 C 215.96875 51.144531 217.019531 52.195312 217.019531 53.496094 L 217.019531 183.507812 C 217.019531 218.25 203.488281 250.90625 178.917969 275.46875 C 154.890625 299.492188 123.117188 312.957031 89.230469 313.542969 C 87.953125 313.5625 86.933594 314.617188 86.933594 315.890625 L 86.933594 334.710938 C 86.933594 336.03125 88.015625 337.082031 89.335938 337.0625 C 125.109375 336.519531 158.902344 323.816406 185.96875 300.917969 C 220.820312 271.4375 240.546875 227.832031 240.546875 182.191406 L 240.546875 29.976562 C 240.546875 28.675781 239.492188 27.625 238.191406 27.625 L 133.222656 27.625 C 131.925781 27.625 130.871094 28.675781 130.871094 29.976562 L 130.871094 48.792969 C 130.871094 50.09375 131.925781 51.144531 133.222656 51.144531 Z M 264.417969 29.976562 L 264.417969 124.3125 C 264.417969 125.613281 265.46875 126.664062 266.769531 126.664062 L 285.59375 126.664062 C 286.890625 126.664062 287.945312 125.613281 287.945312 124.3125 L 287.945312 29.976562 C 287.945312 28.675781 286.890625 27.625 285.59375 27.625 L 266.769531 27.625 C 265.46875 27.625 264.417969 28.675781 264.417969 29.976562 Z M 89.347656 290.011719 C 88.023438 290.042969 86.933594 288.984375 86.933594 287.660156 L 86.933594 268.839844 C 86.933594 267.566406 87.945312 266.523438 89.214844 266.488281 C 133.949219 265.277344 169.96875 228.519531 169.96875 183.507812 L 169.96875 88.777344 C 169.96875 87.476562 171.019531 86.425781 172.320312 86.425781 L 191.140625 86.425781 C 192.441406 86.425781 193.492188 87.476562 193.492188 88.777344 L 193.492188 183.507812 C 193.492188 241.441406 146.992188 288.726562 89.347656 290.011719 " fill-opacity="1" fill-rule="nonzero"/></g><g clip-path="url(#7136071661)"><path fill="#000000" d="M 194.203125 291.167969 C 136.796875 291.167969 90.09375 244.585938 90.09375 187.328125 C 90.09375 130.066406 136.796875 83.484375 194.203125 83.484375 C 229.960938 83.484375 262.796875 101.457031 282.039062 131.570312 L 273.847656 136.777344 C 256.394531 109.476562 226.621094 93.175781 194.203125 93.175781 C 142.15625 93.175781 99.8125 135.414062 99.8125 187.328125 C 99.8125 239.238281 142.15625 281.476562 194.203125 281.476562 C 228.34375 281.476562 259.921875 263 276.625 233.253906 L 285.101562 237.992188 C 266.683594 270.792969 231.855469 291.167969 194.203125 291.167969 Z M 194.203125 291.167969 " fill-opacity="1" fill-rule="nonzero"/></g></svg>