<?xml version="1.0" encoding="UTF-8"?>
<svg xmlns="http://www.w3.org/2000/svg" xmlns:xlink="http://www.w3.org/1999/xlink" width="100px" height="100px" viewBox="0 0 100 100" version="1.1">
<g id="surface1">
<path style=" stroke:none;fill-rule:nonzero;fill:rgb(0%,0%,0%);fill-opacity:1;" d="M 34.921875 9.238281 C 34.699219 10.121094 34.78125 14.300781 35.058594 14.660156 C 35.28125 14.980469 36.261719 15 46.5 15.039062 L 57.699219 15.101562 L 57.761719 19.480469 L 57.800781 23.859375 L 57.058594 23.71875 C 47.621094 22.140625 38.738281 24.878906 32.199219 31.398438 C 28.160156 35.441406 25.71875 40 24.460938 45.800781 C 24.179688 47.101562 24.101562 48.320312 24.121094 51.101562 C 24.121094 54.261719 24.199219 54.980469 24.660156 56.941406 C 25.738281 61.621094 27.800781 65.660156 30.878906 69.179688 C 31.5 69.898438 31.941406 70.539062 31.859375 70.621094 C 31.601562 70.839844 28.558594 71.761719 27.300781 72 C 26.640625 72.121094 25.480469 72.28125 24.699219 72.359375 L 23.300781 72.5 L 23.300781 78.5 L 25.199219 78.480469 C 28.398438 78.441406 31.878906 77.558594 35.539062 75.800781 L 37.558594 74.839844 L 39.441406 75.78125 C 40.460938 76.300781 42 76.941406 42.878906 77.238281 L 44.441406 77.761719 L 42.460938 79.058594 C 37.421875 82.398438 32.039062 84.28125 26 84.800781 C 24.621094 84.921875 23.421875 85.101562 23.339844 85.179688 C 23.261719 85.261719 23.21875 86.621094 23.238281 88.21875 L 23.300781 91.101562 L 24.199219 91.160156 C 24.699219 91.199219 26.101562 91.140625 27.300781 91 C 36.261719 90.101562 44.621094 86.300781 51.058594 80.21875 L 52.71875 78.660156 L 54.5 78.539062 C 61.058594 78.078125 68.640625 74.140625 72.921875 68.960938 C 74.121094 67.519531 75.699219 65.261719 75.921875 64.71875 C 75.980469 64.539062 75.640625 64.21875 74.898438 63.800781 C 74.28125 63.441406 73.761719 63.179688 73.738281 63.21875 C 71 67.578125 68.359375 70.261719 64.558594 72.539062 C 62.238281 73.921875 58.519531 75.300781 56.058594 75.679688 L 55.21875 75.800781 L 56.320312 74.261719 C 60.160156 68.898438 62.578125 62.941406 63.71875 56 C 64 54.238281 64.078125 51.859375 64.179688 41.539062 L 64.300781 29.179688 L 65.699219 30.121094 C 68 31.660156 68.519531 32.179688 70.621094 35 C 71.738281 36.480469 72.71875 37.738281 72.820312 37.761719 C 73.140625 37.878906 76.601562 35.179688 76.699219 34.71875 C 76.761719 34.5 76.78125 28.578125 76.761719 21.601562 L 76.699219 8.898438 L 73.660156 8.839844 L 70.601562 8.78125 L 70.601562 19.621094 C 70.601562 30.140625 70.578125 30.441406 70.21875 30.179688 C 70.019531 30.019531 69.179688 29.378906 68.359375 28.761719 C 67.519531 28.121094 66.238281 27.28125 65.519531 26.878906 L 64.199219 26.160156 L 64.199219 17.800781 C 64.199219 13.199219 64.140625 9.300781 64.078125 9.121094 C 63.960938 8.839844 62.5 8.800781 49.5 8.800781 L 35.039062 8.800781 Z M 56.761719 26.398438 L 57.820312 26.640625 L 57.738281 40.859375 C 57.679688 54.761719 57.660156 55.140625 57.21875 57.101562 C 55.679688 63.960938 52.160156 70.5 47.660156 74.839844 L 46.898438 75.578125 L 45.699219 75.28125 C 44.160156 74.898438 43.019531 74.5 41.359375 73.761719 L 40.019531 73.160156 L 40.660156 72.640625 C 46.761719 67.660156 50.480469 61.078125 51.378906 53.699219 C 51.519531 52.558594 51.601562 47.121094 51.601562 38.921875 L 51.601562 25.941406 L 53.660156 26.058594 C 54.78125 26.121094 56.179688 26.28125 56.761719 26.398438 Z M 45.398438 38.640625 C 45.398438 45.160156 45.300781 51.339844 45.199219 52.359375 C 44.800781 56.078125 43.660156 59.300781 41.679688 62.378906 C 40.421875 64.300781 37.519531 67.300781 35.738281 68.5 L 34.601562 69.261719 L 33.980469 68.679688 C 33 67.761719 31.019531 65.140625 30.058594 63.558594 C 26.460938 57.5 25.699219 49.320312 28.121094 42.558594 C 30.28125 36.558594 35.058594 31.238281 40.738281 28.480469 C 42.179688 27.78125 44.660156 26.839844 45.160156 26.820312 C 45.339844 26.800781 45.398438 29.300781 45.398438 38.640625 Z M 45.398438 38.640625 "/>
</g>
</svg>
